<?xml version="1.0" standalone="no"?><!DOCTYPE svg PUBLIC "-//W3C//DTD SVG 1.1//EN" "http://www.w3.org/Graphics/SVG/1.1/DTD/svg11.dtd"><svg t="1596078127538" class="icon" viewBox="0 0 1024 1024" version="1.1" xmlns="http://www.w3.org/2000/svg" p-id="44372" xmlns:xlink="http://www.w3.org/1999/xlink" width="200" height="200"><defs><style type="text/css"></style></defs><path d="M862.9 512.8l-373.6 373.6c-26.4 26.4-61 39.5-95.6 39.5-34.6 0-69.2-13.2-95.6-39.5-52.7-52.7-52.7-138.5 0-191.2L623.6 369.7c10.3-10.3 27-10.3 37.3 0 10.3 10.3 10.3 27-1e-8 37.3l-325.39999999 325.4c-32.2 32.2-32.19999999 84.5 0 116.6 32.2 32.2 84.5 32.19999999 116.6 0L825.6 475.5M393.7 925.9" fill="#2197EF" p-id="44373"></path><path d="M653 648.1l-341.19999999-341.2c-42.5-42.5-42.5-111.39999999-1e-8-153.9s111.39999999-42.5 153.90000001 0L807 494.1" fill="#CEE8FA" p-id="44374"></path><path d="M825.6 475.5l-336.3-336.3c-25.5-25.5-59.50000001-39.6-95.6-39.60000001-36.1 0-70.10000001 14.1-95.6 39.60000001-52.7 52.7-52.7 138.5 0 191.2L634.4 666.7m74.59999999 0l-17.39999999-17.4-19.80000001-19.8-336.29999999-336.29999999c-32.2-32.2-32.19999999-84.5 0-116.60000001 15.6-15.6 36.3-24.2 58.3-24.2s42.7 8.6 58.3 24.2L788.3 512.8l20.50000001 20.5 16.69999999 16.7" fill="#2197EF" p-id="44375"></path></svg>