<?xml version="1.0" standalone="no"?><!DOCTYPE svg PUBLIC "-//W3C//DTD SVG 1.1//EN" "http://www.w3.org/Graphics/SVG/1.1/DTD/svg11.dtd"><svg t="1596122015047" class="icon" viewBox="0 0 1024 1024" version="1.1" xmlns="http://www.w3.org/2000/svg" p-id="4319" xmlns:xlink="http://www.w3.org/1999/xlink" width="20" height="20"><defs><style type="text/css"></style></defs><path d="M353.92 741.44l59.413333-56.149333a42.666667 42.666667 0 0 1 59.477334 0.853333l0.170666 0.170667a40.533333 40.533333 0 0 1-0.832 58.133333l-57.514666 54.336a44.736 44.736 0 0 1-60.736 0 38.997333 38.997333 0 0 1 0-57.344z" fill="#1296db" p-id="4320"></path><path d="M516.864 644.864a40.533333 40.533333 0 0 1 0.832-58.133333l48.746667-46.058667a38.997333 38.997333 0 0 0 0-57.344l-212.544-200.746667a38.997333 38.997333 0 0 1 0-57.386666 44.736 44.736 0 0 1 60.736 0L657.493333 454.656c33.536 31.68 33.536 83.050667 0 114.730667l-81.002666 76.522666a42.666667 42.666667 0 0 1-59.477334-0.853333l-0.170666-0.170667z" fill="#1296db" p-id="4321"></path></svg>
