<?xml version="1.0" standalone="no"?><!DOCTYPE svg PUBLIC "-//W3C//DTD SVG 1.1//EN" "http://www.w3.org/Graphics/SVG/1.1/DTD/svg11.dtd"><svg t="1596076158089" class="icon" viewBox="0 0 1024 1024" version="1.1" xmlns="http://www.w3.org/2000/svg" p-id="2613" xmlns:xlink="http://www.w3.org/1999/xlink" width="200" height="200"><defs><style type="text/css"></style></defs><path d="M965.216666 626.8928s-199.4752-10.0352-296.96 14.1312a180.4288 180.4288 0 0 0-103.6288 64.1024l-506.4704-348.16-30.5152 36.6592L155.027866 892.928S370.477466 798.72 480.045466 778.24c65.3312-12.288 85.4016 3.6864 97.6896 0 17.2032-4.096 40.96-32.1536 112.2304-47.5136 65.7408-14.1312 225.28-13.5168 292.0448-25.8048 0.2048-0.2048-28.8768-45.056-16.7936-78.0288z" fill="#5CBDFF" p-id="2614"></path><path d="M150.112666 925.4912a20.48 20.48 0 0 1-20.48-15.5648l-129.024-512a20.48 20.48 0 0 1 8.3968-21.9136l10.24-7.3728 3.6864-2.048 28.0576-12.0832 15.36 37.888-21.7088 9.6256L164.448666 877.7728c63.0784-23.552 245.76-90.5216 301.6704-102.4a498.0736 498.0736 0 0 1 118.5792-11.0592 307.2 307.2 0 0 1 97.28-39.1168c54.4768-8.6016 219.5456-20.48 289.3824-25.8048l-32.5632-61.44 36.2496-19.0464 47.3088 89.7024a20.48 20.48 0 0 1-16.7936 28.672c-2.4576 0-250.6752 17.2032-317.0304 27.648a261.7344 261.7344 0 0 0-88.8832 37.0688 20.48 20.48 0 0 1-12.4928 2.6624 426.8032 426.8032 0 0 0-112.4352 9.8304c-64.512 14.336-314.7776 108.7488-317.44 109.568a20.48 20.48 0 0 1-7.168 1.4336z" fill="#37348F" p-id="2615"></path><path d="M417.581466 271.36A121.4464 121.4464 0 0 1 492.128666 237.568a864.8704 864.8704 0 0 1 241.8688 8.192l261.5296 389.12a750.3872 750.3872 0 0 1-111.8208 20.48c-72.4992 8.3968-160.1536 9.8304-195.584 17.408a186.9824 186.9824 0 0 0-102.4 63.2832z" fill="#EBEBFF" p-id="2616"></path><path d="M732.359066 270.1312L715.565466 245.76a865.0752 865.0752 0 0 0-242.2784-7.3728 121.4464 121.4464 0 0 0-73.9328 33.792l10.8544 27.0336a133.3248 133.3248 0 0 1 65.1264-25.8048 865.0752 865.0752 0 0 1 242.0736 7.3728l5.12 7.7824a65.1264 65.1264 0 0 1 9.8304-18.432z" fill="#FFFFFF" p-id="2617"></path><path d="M56.314266 348.16s156.0576-81.92 242.0736-100.9664c81.92-18.0224 124.928 18.2272 124.928 18.2272l162.6112 471.04A276.6848 276.6848 0 0 0 471.648666 737.28c-105.0624 24.1664-291.2256 102.4-291.2256 102.4z" fill="#EBEBFF" p-id="2618"></path><path d="M758.368666 387.4816l-50.9952 34.6112 12.9024-60.2112 178.9952-266.24a22.9376 22.9376 0 0 1 31.744-6.144 22.9376 22.9376 0 0 1 6.144 31.744z" fill="#37348F" p-id="2619"></path><path d="M711.674266 402.8416l-4.096 19.6608 16.5888-11.264-12.4928-8.3968z" fill="#FF457A" p-id="2620"></path><path d="M423.315866 265.0112s-43.4176-36.2496-124.928-18.2272C212.167066 266.24 56.314266 348.16 56.314266 348.16l13.1072 52.0192a66.9696 66.9696 0 0 1 18.0224-3.4816l-2.8672-11.4688s156.0576-81.92 242.0736-100.9664a167.7312 167.7312 0 0 1 105.6768 7.168z" fill="#FFFFFF" p-id="2621"></path><path d="M1002.899866 617.2672l-256.6144-380.928a20.48 20.48 0 0 0-13.1072-8.6016 861.184 861.184 0 0 0-244.3264-7.3728 155.648 155.648 0 0 0-64.512 22.9376 178.7904 178.7904 0 0 0-126.7712-13.5168C211.347866 248.832 62.048666 327.68 54.675866 330.752a20.48 20.48 0 0 0-10.24 23.1424l121.2416 483.1232a20.48 20.48 0 0 0 27.8528 13.9264c1.8432 0 182.272-77.2096 282.4192-100.1472a199.4752 199.4752 0 0 1 93.184-1.2288 20.48 20.48 0 0 0 20.48-6.144l1.024-1.6384a222.8224 222.8224 0 0 1 98.304-54.272 819.2 819.2 0 0 1 90.112-8.6016c31.5392-2.048 67.3792-4.5056 99.9424-8.192a754.688 754.688 0 0 0 113.0496-22.1184 20.48 20.48 0 0 0 11.264-31.1296zM466.938266 710.656a2118.2464 2118.2464 0 0 0-266.24 93.184l-112.64-444.2112c39.5264-20.48 152.1664-75.1616 218.3168-89.9072a135.3728 135.3728 0 0 1 100.9664 10.8544l136.3968 423.936a233.0624 233.0624 0 0 0-76.8 6.144z m407.1424-80.896c-31.5392 3.6864-66.7648 5.9392-97.8944 7.9872a811.2128 811.2128 0 0 0-96.256 9.4208 249.4464 249.4464 0 0 0-97.4848 44.2368L449.120666 275.8656a118.784 118.784 0 0 1 45.2608-14.9504A829.8496 829.8496 0 0 1 717.408666 266.24l235.52 349.5936a737.28 737.28 0 0 1-78.848 14.1312z" fill="#37348F" p-id="2622"></path><path d="M593.504666 459.1616c-14.7456 0-17.8176-5.7344-20.48-9.0112-6.3488-12.288 5.5296-30.3104 31.1296-66.56A340.992 340.992 0 0 0 635.488666 334.6432a292.864 292.864 0 0 0-87.4496 49.5616 10.24 10.24 0 0 1-12.288-16.384c18.8416-14.336 81.92-61.44 109.568-53.0432a15.1552 15.1552 0 0 1 10.6496 9.6256c4.9152 13.7216-9.216 34.816-34.6112 70.8608A357.9904 357.9904 0 0 0 594.528666 439.0912 389.12 389.12 0 0 0 688.122266 409.6a10.24 10.24 0 1 1 7.9872 18.8416 307.2 307.2 0 0 1-102.6048 30.72z" fill="#FF457A" p-id="2623"></path><path d="M176.531866 456.9088a10.24 10.24 0 0 1-6.3488-18.432c3.072-2.4576 76.8-59.1872 143.36-73.5232a203.5712 203.5712 0 0 1 81.92-3.8912 10.24 10.24 0 0 1-4.5056 20.48 189.6448 189.6448 0 0 0-72.4992 3.8912c-61.44 13.5168-134.7584 69.2224-135.3728 69.8368a10.24 10.24 0 0 1-6.5536 1.6384z" fill="#F4D240" p-id="2624"></path><path d="M191.891866 530.0224A10.24 10.24 0 0 1 184.928666 512c3.072-2.4576 76.8-59.1872 143.36-73.5232a204.8 204.8 0 0 1 81.92-3.8912 10.24 10.24 0 0 1-4.5056 20.48 190.0544 190.0544 0 0 0-72.4992 3.8912c-61.44 13.5168-134.7584 69.2224-135.3728 69.8368a10.24 10.24 0 0 1-5.9392 1.2288zM211.143066 601.7024a10.24 10.24 0 0 1-6.3488-18.432c3.072-2.4576 76.8-59.1872 143.36-73.5232a204.8 204.8 0 0 1 81.92-3.8912 10.24 10.24 0 0 1-4.5056 20.48 189.6448 189.6448 0 0 0-72.4992 3.8912c-61.44 13.5168-134.7584 69.2224-135.3728 69.8368a10.24 10.24 0 0 1-6.5536 1.6384z" fill="#47E289" p-id="2625"></path></svg>