<?xml version="1.0" standalone="no"?><!DOCTYPE svg PUBLIC "-//W3C//DTD SVG 1.1//EN" "http://www.w3.org/Graphics/SVG/1.1/DTD/svg11.dtd"><svg t="1596075878169" class="icon" viewBox="0 0 1024 1024" version="1.1" xmlns="http://www.w3.org/2000/svg" p-id="1520" xmlns:xlink="http://www.w3.org/1999/xlink" width="200" height="200"><defs><style type="text/css"></style></defs><path d="M23.9616 996.7616V649.8304a1137.0496 1137.0496 0 0 1 138.24-8.6016c342.6304 0 592.6912 144.9984 725.1968 355.5328z" fill="#8a8a8a" p-id="1521"></path><path d="M854.6304 996.7616h32.768C754.8928 786.2272 504.832 641.2288 162.2016 641.2288a1137.2544 1137.2544 0 0 0-138.24 8.6016V696.32a1137.2544 1137.2544 0 0 1 138.24-8.6016c316.416 0.6144 553.5744 124.3136 692.4288 309.0432z" fill="#8a8a8a" p-id="1522"></path><path d="M523.8784 503.3984h416.3584v317.44H523.8784z" fill="#8a8a8a" p-id="1523"></path><path d="M1003.52 1003.52V778.24c-45.056-3.4816-91.3408-5.5296-138.6496-5.5296-343.2448 0-593.92 93.7984-726.8352 230.1952z" fill="#8a8a8a" p-id="1524"></path><path d="M221.7984 1001.8816c122.88-125.7472 345.7024-215.2448 649.4208-228.352h-6.144c-343.2448 0-593.92 93.7984-726.8352 230.1952H1003.52v-1.6384z" fill="#8a8a8a" p-id="1525"></path><path d="M87.04 634.88l69.2224-240.64L212.5824 532.48l48.5376-140.6976 84.5824 253.3376L87.04 634.88z" fill="#8a8a8a" p-id="1526"></path><path d="M732.16 305.5616L476.16 512h512l-256-206.4384z" fill="#8a8a8a" p-id="1527"></path><path d="M730.5216 333.4144l-160.5632 173.4656H491.52l239.0016-173.4656zM569.9584 528.9984v257.8432h-42.5984V523.8784l42.5984 5.12zM157.0816 433.5616l-30.72 208.0768h-51.2l81.92-208.0768z" fill="#8a8a8a" p-id="1528"></path><path d="M1005.1584 754.8928c-16.384-1.2288-32.9728-2.048-49.3568-2.8672V532.48h30.72a20.48 20.48 0 0 0 12.9024-36.4544l-256-204.8a20.48 20.48 0 0 0-25.6 0l-256 204.8a20.48 20.48 0 0 0 12.6976 36.4544h30.72v143.36a967.2704 967.2704 0 0 0-144.7936-37.2736L280.7808 356.352a20.48 20.48 0 0 0-39.5264 0L209.1008 471.04l-32.3584-114.688a20.48 20.48 0 0 0-39.5264 0L61.44 626.0736c-14.5408 1.2288-28.8768 2.2528-43.2128 3.8912a20.48 20.48 0 0 0-18.0224 20.48V1003.52a20.48 20.48 0 0 0 20.48 20.48H1003.52a20.48 20.48 0 0 0 20.48-20.48V775.3728a20.48 20.48 0 0 0-18.8416-20.48z m-352.256-111.4112a48.7424 48.7424 0 0 0-48.5376 48.7424v76.8q-29.4912 4.7104-57.9584 10.4448V532.48h353.0752v217.4976h-36.6592c-55.5008 0-109.1584 2.6624-161.1776 7.5776v-65.536a48.7424 48.7424 0 0 0-48.7424-48.5376z m77.6192-310.0672l2.2528 1.8432-2.4576-1.8432z m0 0l163.84 157.696H532.48z m-469.4016 103.8336l31.744 191.0784c-13.5168-1.4336-27.0336-3.2768-40.96-4.3008l-22.1184-78.2336z m-104.2432 0l37.0688 184.32h-32.768c-18.6368 0-37.6832 0-56.5248 1.8432zM116.3264 983.04H40.96V668.672a1140.9408 1140.9408 0 0 1 120.4224-6.5536 1008.64 1008.64 0 0 1 343.8592 56.9344v69.2224C341.1968 826.9824 206.848 893.3376 116.3264 983.04zM983.04 983.04H176.7424c147.456-122.88 393.4208-192.9216 685.8752-192.9216 39.5264 0 79.872 1.4336 120.4224 4.096z" fill="#8a8a8a" p-id="1529"></path></svg>