<?xml version="1.0" standalone="no"?><!DOCTYPE svg PUBLIC "-//W3C//DTD SVG 1.1//EN" "http://www.w3.org/Graphics/SVG/1.1/DTD/svg11.dtd"><svg t="1596076316082" class="icon" viewBox="0 0 1024 1024" version="1.1" xmlns="http://www.w3.org/2000/svg" p-id="3335" xmlns:xlink="http://www.w3.org/1999/xlink" width="200" height="200"><defs><style type="text/css"></style></defs><path d="M607.8464 343.8592L593.92 270.336v-2.8672l-1.8432-1.2288H593.92c0-161.1776-100.7616-225.28-225.28-225.28S143.36 102.4 143.36 266.24l4.7104-1.4336c-3.072 3.4816-4.7104 5.5296-4.7104 5.5296l-13.9264 73.5232a20.48 20.48 0 0 0 26.4192 23.3472A716.8 716.8 0 0 1 368.64 329.728a716.8 716.8 0 0 1 212.7872 37.2736 20.48 20.48 0 0 0 26.4192-23.1424z" fill="#FF457A" p-id="3336"></path><path d="M143.36 314.7776s1.6384-2.2528 4.7104-5.5296l-4.7104 1.4336A340.992 340.992 0 0 1 146.2272 266.24l-2.8672 4.096-13.9264 73.5232a20.48 20.48 0 0 0 5.12 17.6128z" fill="#FFFFFF" p-id="3337"></path><path d="M368.64 85.4016c124.5184 0 225.28 64.1024 225.28 225.28h-1.8432l1.8432 1.8432v2.8672l8.8064 46.6944a20.48 20.48 0 0 0 5.12-17.6128L593.92 270.336v-2.8672l-1.8432-1.2288H593.92c0-161.1776-100.7616-225.28-225.28-225.28S143.36 102.4 143.36 266.24h3.072C163.84 135.5776 256.6144 85.4016 368.64 85.4016z" fill="#FFFFFF" p-id="3338"></path><path d="M258.6624 716.8h219.9552A156.2624 156.2624 0 0 1 634.88 873.0624V1003.52H102.4v-130.4576A156.0576 156.0576 0 0 1 258.6624 716.8z" fill="#47E289" p-id="3339"></path><path d="M478.8224 716.8H258.6624A156.0576 156.0576 0 0 0 102.4 873.0624v44.4416a156.2624 156.2624 0 0 1 156.2624-156.0576h220.16A156.2624 156.2624 0 0 1 634.88 917.2992v-44.2368A156.0576 156.0576 0 0 0 478.8224 716.8z" fill="#FFFFFF" p-id="3340"></path><path d="M570.9824 348.16a684.6464 684.6464 0 0 0-199.68-30.72A774.3488 774.3488 0 0 0 163.84 348.16v92.16a204.8 204.8 0 0 0 204.8 204.8 204.8 204.8 0 0 0 204.8-204.8V348.16M460.8 709.2224a92.3648 92.3648 0 0 1-92.16 92.16 92.3648 92.3648 0 0 1-92.16-92.16z" fill="#EBEBFF" p-id="3341"></path><path d="M312.32 649.0112h112.64v61.44h-112.64z" fill="#EBEBFF" p-id="3342"></path><path d="M692.4288 575.488a61.44 61.44 0 0 1 86.8352 0l28.8768 28.8768 28.8768-28.8768a61.44 61.44 0 0 1 86.8352 0 61.44 61.44 0 0 1 0 86.8352L808.1408 778.24l-115.9168-115.9168a61.44 61.44 0 0 1 0.2048-86.8352z" fill="#F4D240" p-id="3343"></path><path d="M450.56 473.7024a10.24 10.24 0 0 0-20.48 0 61.44 61.44 0 0 1-122.88 0 10.24 10.24 0 0 0-20.48 0 81.92 81.92 0 0 0 163.84 0z" fill="#37348F" p-id="3344"></path><path d="M478.8224 696.32H450.56v-46.2848a225.28 225.28 0 0 0 143.36-209.7152v-52.224a40.96 40.96 0 0 0 33.9968-48.128L614.4 268.4928V266.24c0-146.8416-83.7632-236.9536-225.28-245.76a20.48 20.48 0 0 0-40.96 0C204.8 28.8768 122.88 117.1456 122.88 266.24v2.2528l-13.5168 71.4752A40.96 40.96 0 0 0 143.36 387.8912v52.4288a225.28 225.28 0 0 0 143.36 209.7152V696.32h-28.0576A176.7424 176.7424 0 0 0 81.92 873.0624V1003.52a20.48 20.48 0 0 0 20.48 20.48h532.48a20.48 20.48 0 0 0 20.48-20.48v-130.4576A176.7424 176.7424 0 0 0 478.8224 696.32z m-33.3824 40.96a81.92 81.92 0 0 1-153.1904 0zM149.7088 348.16l12.4928-65.7408A791.7568 791.7568 0 0 1 368.64 248.4224a792.9856 792.9856 0 0 1 206.6432 33.5872L587.776 348.16A740.9664 740.9664 0 0 0 368.64 309.248 740.1472 740.1472 0 0 0 149.7088 348.16zM368.64 61.44c72.2944 0 190.8736 23.7568 203.776 176.9472A807.3216 807.3216 0 0 0 368.64 207.4624a807.1168 807.1168 0 0 0-203.776 31.1296C176.5376 92.9792 280.576 61.44 368.64 61.44zM184.32 440.32v-61.44a674.6112 674.6112 0 0 1 184.32-29.4912 674.6112 674.6112 0 0 1 184.32 29.4912v61.44a184.32 184.32 0 0 1-368.64 0z m143.36 221.3888a216.2688 216.2688 0 0 0 81.92 0V696.32h-81.92zM614.4 983.04H122.88v-109.9776A135.7824 135.7824 0 0 1 258.6624 737.28h12.0832a102.4 102.4 0 0 0 195.9936 0h12.0832A135.7824 135.7824 0 0 1 614.4 873.0624zM938.5984 560.9472a83.7632 83.7632 0 0 0-115.9168 0l-14.5408 14.5408-14.5408-14.5408a83.7632 83.7632 0 0 0-115.9168 0 81.92 81.92 0 0 0 0 115.9168l115.9168 115.9168a20.48 20.48 0 0 0 28.8768 0L938.5984 675.84a81.92 81.92 0 0 0 0-115.9168z m-28.8768 86.8352l-101.376 102.4-102.4-102.4a40.96 40.96 0 1 1 57.9584-57.9584l29.0816 28.8768a20.48 20.48 0 0 0 28.8768 0l28.8768-28.8768a40.96 40.96 0 0 1 57.9584 0 40.96 40.96 0 0 1 0 57.9584z" fill="#37348F" p-id="3345"></path></svg>