<?xml version="1.0" standalone="no"?><!DOCTYPE svg PUBLIC "-//W3C//DTD SVG 1.1//EN" "http://www.w3.org/Graphics/SVG/1.1/DTD/svg11.dtd"><svg t="1596076249088" class="icon" viewBox="0 0 1024 1024" version="1.1" xmlns="http://www.w3.org/2000/svg" p-id="2975" xmlns:xlink="http://www.w3.org/1999/xlink" width="200" height="200"><defs><style type="text/css"></style></defs><path d="M774.5536 993.28H126.5664a40.96 40.96 0 0 1-40.96-44.6464L143.36 296.96h614.4l57.5488 651.6736a40.96 40.96 0 0 1-40.7552 44.6464z" fill="#FF457A" p-id="2976"></path><path d="M139.0592 948.6336L196.608 296.96h-61.44L77.6192 948.6336a40.96 40.96 0 0 0 40.96 44.6464h61.44a40.96 40.96 0 0 1-40.96-44.6464z" fill="#FFFFFF" p-id="2977"></path><path d="M762.88 286.72H146.8416l81.92-77.4144h616.0384l-81.92 77.4144z" fill="#47E289" p-id="2978"></path><path d="M978.5344 756.1216l-112.64-545.1776a20.48 20.48 0 0 0 0-3.4816 20.48 20.48 0 0 0-19.0464-12.9024H731.136a184.32 184.32 0 0 0-268.9024-163.84h-5.5296a184.32 184.32 0 0 0-183.0912 163.84H231.424a20.48 20.48 0 0 0-13.9264 5.5296l-87.8592 81.92a20.48 20.48 0 0 0-4.096 5.3248v1.8432a20.48 20.48 0 0 0-1.4336 4.9152v1.024L65.536 946.9952a61.44 61.44 0 0 0 61.44 66.7648h647.5776a61.44 61.44 0 0 0 45.2608-20.48c1.2288-1.4336 2.048-2.8672 3.2768-4.3008l143.36-183.0912a61.44 61.44 0 0 0 12.0832-49.7664z m-184.32-520.6016l-44.032 40.96H641.024v-40.96z m-193.7408 0v40.96h-286.72v-40.96zM471.04 72.4992a143.36 143.36 0 0 1 126.3616 122.88H403.456a143.36 143.36 0 0 1 67.584-122.88z m74.752-20.48a143.36 143.36 0 0 1 143.36 143.36h-49.3568a184.32 184.32 0 0 0-98.5088-143.36z m-145.6128 31.3344A183.0912 183.0912 0 0 0 362.496 194.56h-47.5136a143.36 143.36 0 0 1 85.1968-111.2064z m-160.768 152.1664h32.9728v40.96H195.3792z m534.9376 737.28H126.5664a20.48 20.48 0 0 1-20.48-22.3232L162.2016 317.44h110.1824v81.92a20.48 20.48 0 0 0 40.96 0v-81.92h286.72v81.92a20.48 20.48 0 0 0 40.96 0v-81.92h97.8944l55.9104 633.0368a20.48 20.48 0 0 1-20.48 22.3232z" fill="#37348F" p-id="2979"></path><path d="M291.6352 490.2912m-30.72 0a30.72 30.72 0 1 0 61.44 0 30.72 30.72 0 1 0-61.44 0Z" fill="#F4D240" p-id="2980"></path><path d="M619.3152 490.2912m-30.72 0a30.72 30.72 0 1 0 61.44 0 30.72 30.72 0 1 0-61.44 0Z" fill="#F4D240" p-id="2981"></path></svg>